<svg xmlns="http://www.w3.org/2000/svg" viewBox="0 0 64 64"><path fill="#bedcff" d="M53.75 47.71a4 4 0 0 1-4 4h-41a4 4 0 1 1 0-8h1.5v-16a19 19 0 0 1 13-18 19 19 0 0 1 12 0c.33.1.65.23 1 .35a15 15 0 0 0 8 27.68 14.69 14.69 0 0 0 4-.55v6.55h1.5a4 4 0 0 1 4 3.97Z"/><path fill="#fcd8aa" d="M35.25 7.71v2a19 19 0 0 0-12 0v-2a6 6 0 0 1 12 0Z"/><path fill="#00459a" d="M39.25 51.71a10 10 0 1 1-20 0Z"/><path fill="#fff" d="M59.25 22.71a15 15 0 0 1-11 14.45 14.69 14.69 0 0 1-4 .55 15 15 0 1 1 15-15Z"/><path fill="#ee161f" d="M46.25 12h-4v11a2 2 0 0 0 1.28 1.87l7.75 3 1.44-3.74-6.47-2.5Z"/></svg>